#define haskell_width 24
#define haskell_height 16
static unsigned char haskell_bits[] = {
   0x00, 0x00, 0x00, 0x00, 0x00, 0x00, 0x00, 0x00, 0x00, 0x00, 0x00, 0x00,
   0x00, 0x00, 0x00, 0x8c, 0x01, 0x00, 0x18, 0x03, 0x00, 0x30, 0xc6, 0x0f,
   0x60, 0x0c, 0x00, 0xc0, 0x18, 0x00, 0x60, 0x3c, 0x0e, 0x30, 0x66, 0x00,
   0x18, 0xc3, 0x00, 0x8c, 0x81, 0x01, 0x00, 0x00, 0x00, 0x00, 0x00, 0x00 };
